<?xml version="1.0" encoding="UTF-8"?>
<svg id="Capa_2" data-name="Capa 2" xmlns="http://www.w3.org/2000/svg" viewBox="0 0 2020.99 1754.67">
  <defs>
    <style>
      .cls-1 {
        fill: #fff;
      }

      .cls-2 {
        fill: #88cde5;
      }
    </style>
  </defs>
  <path class="cls-2" d="M1506.53,501.01c-10.54-5.01-22.98-6.01-34.77-1.82-8.04,2.86-14.78,7.79-19.85,13.97l-3.21-9.03c-8.4-23.59-34.56-36.02-58.16-27.62l-1.2.43c-23.59,8.4-36.02,34.56-27.62,58.15l1.98,5.56c-6.41-.61-13.04.12-19.47,2.41-23.59,8.4-36.02,34.57-27.62,58.16l26.83,75.39c-7.85-1.6-16.19-1.16-24.24,1.7-23.59,8.4-36.03,34.56-27.63,58.15l40.46,113.7c2.89,6.88,6.3,13.41,10.17,19.56,34.83,55.48,106.68,80.82,173.43,57.06,76.76-27.32,117.72-109.19,91.5-182.86-1.25-3.52-2.17-7.13-3.68-10.49h0l-73.53-206.61c-4.2-11.8-12.84-20.8-23.38-25.81ZM1446.96,695.96c.93.09,1.86.15,2.79.18l-2.42.86-.37-1.04Z"/>
  <path class="cls-1" d="M1522.46,886.78c19.65-11.75,54.37-38.63,58.89-83.69,1.42-14.15-.53-28.44-5.3-41.84l-64.12-180.17c-17.35-48.74-18.47-56.92-34.65-49.56-16.18,7.36-7.44,28.02,8.25,68.66s38.82,86.36,17.44,93.92c-21.38,7.56-27.68-22.81-41.83-62.78-14.15-39.97-20.37-57.24-31.01-87.14s-13.45-40.36-28.62-35.23-9.09,21.79-5.16,32.83c3.93,11.04,44.27,124.4,51.15,143.72,6.87,19.31,2.15,27.08-7.07,30.37s-17.23-.08-26.89-27.23c-9.66-27.15-23.87-67.08-31.37-88.14-7.5-21.06-11.9-29.83-24.18-25.46s-15.75,8.53-.6,51.12c15.16,42.59,34.44,96.77,43.44,122.07,9,25.3,6.5,30.95-3.64,34.55-10.14,3.61-17.88-1.62-24.24-19.49-6.36-17.87-10.09-52.76-32.22-53.18-22.13-.42-19.25,13.53-16.15,22.24,3.1,8.71,22.23,62.46,33.45,93.99s49.81,94.95,140.08,70.77c8.56-2.29,16.75-5.77,24.36-10.32Z"/>
  <line x1="1449.74" y1="696.14" x2="1447.33" y2="697"/>
  <g>
    <path class="cls-2" d="M1622.25,644.29s4.11,11.56,13.59,38.2c9.48,26.64,7.83,34.09,22.41,30.25,14.58-3.84,5.71-24.65-1.3-44.29s-14.42-47.03-26.74-41.69c-12.31,5.34-7.97,17.54-7.97,17.54Z"/>
    <path class="cls-2" d="M1709.89,611.96c.92,2.57,11.74,13.69,16.07,31.3,4.32,17.61,5.8,14.9,3.55,28.46-2.25,13.56,9.33,18.43,15.55,15.63,6.21-2.8,11.16-24.86,3.55-51.03-7.61-26.17-26.19-47.62-35.61-40.11-9.42,7.51-3.1,15.75-3.1,15.75Z"/>
    <path class="cls-2" d="M1678.46,658.4c-1.65-4.88-3.1-9.82-4.34-14.82-2.28-9.19-7.26-26.39-14.47-36.03-8.6-11.49-17.73-19.48-6.77-28.12,9.91-7.81,22.31,3.32,29.71,22.41,7.41,19.09,23.77,62.99,29.03,84.89,5.26,21.9,10.96,42.43-8.69,45.63-19.65,3.2-5.87-17.44-10.68-32.55-3.3-10.37-9.94-30.08-13.78-41.42Z"/>
  </g>
  <g>
    <path class="cls-2" d="M256.57,574.84h55c7.67,0,14.92.7,21.75,2.09,6.83,1.4,12.79,3.8,17.88,7.21,5.09,3.42,9.13,8.02,12.13,13.8,3,5.79,4.5,13.07,4.5,21.85s-1.4,15.89-4.18,21.75c-2.79,5.86-6.62,10.53-11.5,14.01-4.88,3.49-10.67,5.96-17.36,7.42-6.69,1.46-13.94,2.2-21.75,2.2h-23.84v57.72h-32.62v-148.06ZM289.2,637.58h21.75c2.93,0,5.75-.28,8.47-.84,2.72-.56,5.16-1.5,7.32-2.82,2.16-1.32,3.9-3.14,5.23-5.44,1.32-2.3,1.99-5.19,1.99-8.68,0-3.76-.87-6.8-2.61-9.1-1.74-2.3-3.97-4.08-6.69-5.33s-5.75-2.06-9.1-2.4c-3.35-.35-6.55-.52-9.62-.52h-16.73v35.13Z"/>
    <path class="cls-2" d="M478.24,722.9h-30.11v-13.8h-.42c-1.12,1.95-2.55,3.9-4.29,5.86-1.74,1.95-3.87,3.7-6.38,5.23-2.51,1.54-5.37,2.79-8.57,3.76-3.21.97-6.69,1.46-10.46,1.46-7.95,0-14.4-1.22-19.34-3.66-4.95-2.44-8.78-5.82-11.5-10.14-2.72-4.32-4.53-9.41-5.44-15.27-.91-5.86-1.36-12.2-1.36-19.03v-56.05h31.37v49.77c0,2.93.1,5.96.31,9.1.21,3.14.84,6.03,1.88,8.68,1.05,2.65,2.65,4.81,4.81,6.48,2.16,1.67,5.26,2.51,9.31,2.51s7.32-.73,9.83-2.2c2.51-1.46,4.42-3.41,5.75-5.86,1.32-2.44,2.2-5.19,2.61-8.26.42-3.06.63-6.27.63-9.62v-50.61h31.37v101.64Z"/>
    <path class="cls-2" d="M592.63,705.34c-5.02,6.41-11.36,11.36-19.03,14.85-7.67,3.48-15.62,5.23-23.84,5.23s-15.16-1.25-22.06-3.76c-6.9-2.51-12.9-6.1-17.98-10.77-5.09-4.67-9.1-10.28-12.02-16.83-2.93-6.55-4.39-13.87-4.39-21.96s1.46-15.4,4.39-21.96c2.93-6.55,6.93-12.16,12.02-16.83,5.09-4.67,11.08-8.26,17.98-10.77,6.9-2.51,14.25-3.76,22.06-3.76,7.25,0,13.83,1.25,19.76,3.76,5.92,2.51,10.94,6.1,15.06,10.77,4.11,4.67,7.28,10.28,9.52,16.83,2.23,6.55,3.35,13.87,3.35,21.96v9.83h-72.78c1.25,6,3.97,10.77,8.16,14.33s9.34,5.33,15.48,5.33c5.16,0,9.52-1.15,13.07-3.45,3.56-2.3,6.66-5.26,9.31-8.89l21.96,16.1ZM566.08,660.58c.14-5.3-1.6-9.83-5.23-13.59-3.63-3.76-8.3-5.65-14.01-5.65-3.49,0-6.56.56-9.2,1.67-2.65,1.12-4.91,2.55-6.8,4.29-1.88,1.74-3.35,3.76-4.39,6.06-1.05,2.3-1.64,4.71-1.78,7.21h41.41Z"/>
    <path class="cls-2" d="M612.5,621.27h30.11v13.8h.42c.97-1.95,2.37-3.9,4.18-5.86,1.81-1.95,3.97-3.69,6.48-5.23,2.51-1.53,5.37-2.79,8.57-3.76,3.21-.97,6.69-1.46,10.46-1.46,7.95,0,14.36,1.22,19.24,3.66,4.88,2.44,8.68,5.82,11.4,10.14,2.72,4.32,4.56,9.41,5.54,15.27.97,5.86,1.46,12.2,1.46,19.03v56.05h-31.37v-49.77c0-2.93-.1-5.96-.31-9.1-.21-3.14-.84-6.03-1.88-8.68-1.05-2.65-2.65-4.81-4.81-6.48-2.16-1.67-5.26-2.51-9.31-2.51s-7.32.73-9.83,2.2c-2.51,1.46-4.43,3.42-5.75,5.86-1.33,2.44-2.2,5.2-2.61,8.26-.42,3.07-.63,6.27-.63,9.62v50.61h-31.37v-101.64Z"/>
    <path class="cls-2" d="M797.78,646.36h-27.6v33.88c0,2.79.14,5.33.42,7.63.28,2.3.91,4.29,1.88,5.96.97,1.67,2.47,2.96,4.5,3.87,2.02.91,4.71,1.36,8.05,1.36,1.67,0,3.87-.17,6.59-.52,2.72-.35,4.77-1.15,6.17-2.4v26.14c-3.49,1.25-7.11,2.09-10.87,2.51-3.76.42-7.46.63-11.08.63-5.3,0-10.18-.56-14.64-1.67-4.46-1.11-8.37-2.89-11.71-5.33-3.35-2.44-5.96-5.61-7.84-9.52-1.88-3.9-2.82-8.64-2.82-14.22v-48.31h-20.08v-25.1h20.08v-30.11h31.37v30.11h27.6v25.1Z"/>
    <path class="cls-2" d="M905.9,705.34c-5.02,6.41-11.36,11.36-19.03,14.85-7.67,3.48-15.62,5.23-23.84,5.23s-15.16-1.25-22.06-3.76c-6.9-2.51-12.9-6.1-17.98-10.77-5.09-4.67-9.1-10.28-12.02-16.83-2.93-6.55-4.39-13.87-4.39-21.96s1.46-15.4,4.39-21.96c2.93-6.55,6.93-12.16,12.02-16.83,5.09-4.67,11.08-8.26,17.98-10.77,6.9-2.51,14.25-3.76,22.06-3.76,7.25,0,13.83,1.25,19.76,3.76,5.92,2.51,10.94,6.1,15.06,10.77,4.11,4.67,7.28,10.28,9.52,16.83,2.23,6.55,3.35,13.87,3.35,21.96v9.83h-72.78c1.25,6,3.97,10.77,8.16,14.33s9.34,5.33,15.48,5.33c5.16,0,9.52-1.15,13.07-3.45,3.56-2.3,6.66-5.26,9.31-8.89l21.96,16.1ZM879.34,660.58c.14-5.3-1.6-9.83-5.23-13.59-3.63-3.76-8.3-5.65-14.01-5.65-3.49,0-6.56.56-9.2,1.67-2.65,1.12-4.91,2.55-6.8,4.29-1.88,1.74-3.35,3.76-4.39,6.06-1.05,2.3-1.64,4.71-1.78,7.21h41.41Z"/>
    <path class="cls-2" d="M983.28,651.17c-4.6-5.71-10.67-8.57-18.19-8.57-2.65,0-5.23.63-7.74,1.88-2.51,1.25-3.76,3.42-3.76,6.48,0,2.51,1.29,4.36,3.87,5.54,2.58,1.19,5.86,2.23,9.83,3.14,3.97.91,8.22,1.88,12.76,2.93,4.53,1.05,8.78,2.69,12.76,4.91,3.97,2.23,7.25,5.26,9.83,9.1,2.58,3.84,3.87,8.96,3.87,15.37s-1.43,11.96-4.29,16.21c-2.86,4.25-6.52,7.67-10.98,10.25-4.46,2.58-9.48,4.39-15.06,5.44-5.58,1.05-11.08,1.57-16.52,1.57-7.11,0-14.29-1.01-21.54-3.03-7.25-2.02-13.38-5.61-18.4-10.77l19.03-21.12c2.93,3.63,6.17,6.38,9.72,8.26,3.56,1.88,7.7,2.82,12.44,2.82,3.62,0,6.9-.52,9.83-1.57,2.93-1.05,4.39-2.96,4.39-5.75,0-2.65-1.29-4.63-3.87-5.96-2.58-1.32-5.86-2.44-9.83-3.35-3.97-.91-8.23-1.88-12.76-2.93-4.53-1.05-8.78-2.61-12.76-4.71-3.97-2.09-7.25-5.05-9.83-8.89-2.58-3.83-3.87-8.96-3.87-15.37,0-5.99,1.22-11.15,3.66-15.48,2.44-4.32,5.65-7.88,9.62-10.67,3.97-2.79,8.54-4.84,13.7-6.17,5.16-1.32,10.38-1.99,15.68-1.99,6.69,0,13.45.98,20.29,2.93,6.83,1.95,12.62,5.44,17.36,10.46l-19.24,19.03Z"/>
    <path class="cls-2" d="M359.25,933.49h-28.86v-13.38h-.42c-1.25,1.81-2.9,3.66-4.91,5.54-2.02,1.88-4.39,3.59-7.11,5.12-2.72,1.54-5.72,2.79-8.99,3.76-3.28.97-6.66,1.46-10.14,1.46-7.53,0-14.36-1.29-20.49-3.87-6.14-2.58-11.4-6.2-15.79-10.88-4.39-4.67-7.77-10.21-10.14-16.62-2.37-6.41-3.56-13.45-3.56-21.12,0-7.11,1.08-13.91,3.24-20.39,2.16-6.48,5.23-12.23,9.2-17.25,3.97-5.02,8.82-9.03,14.53-12.03,5.71-3,12.2-4.5,19.45-4.5,6.55,0,12.65,1.01,18.3,3.03,5.65,2.02,10.28,5.47,13.91,10.35h.42v-67.34h31.37v158.1ZM330.39,882.67c0-7.67-2.2-13.87-6.59-18.61-4.39-4.74-10.56-7.11-18.51-7.11s-14.12,2.37-18.51,7.11c-4.39,4.74-6.59,10.95-6.59,18.61s2.2,13.88,6.59,18.61c4.39,4.74,10.56,7.11,18.51,7.11s14.12-2.37,18.51-7.11c4.39-4.74,6.59-10.94,6.59-18.61Z"/>
    <path class="cls-2" d="M476.57,915.93c-5.02,6.41-11.36,11.36-19.03,14.85-7.67,3.48-15.62,5.23-23.84,5.23s-15.16-1.25-22.06-3.76-12.9-6.1-17.98-10.77c-5.09-4.67-9.1-10.28-12.02-16.83-2.93-6.55-4.39-13.87-4.39-21.96s1.46-15.4,4.39-21.96c2.93-6.55,6.93-12.16,12.02-16.83,5.09-4.67,11.08-8.26,17.98-10.77s14.25-3.76,22.06-3.76c7.25,0,13.83,1.25,19.76,3.76,5.92,2.51,10.94,6.1,15.06,10.77,4.11,4.67,7.28,10.28,9.52,16.83,2.23,6.55,3.35,13.87,3.35,21.96v9.83h-72.78c1.25,6,3.97,10.77,8.16,14.33,4.18,3.56,9.34,5.33,15.48,5.33,5.16,0,9.52-1.15,13.07-3.45,3.56-2.3,6.66-5.26,9.31-8.89l21.96,16.1ZM450.01,871.17c.14-5.3-1.6-9.83-5.23-13.59-3.63-3.76-8.3-5.65-14.01-5.65-3.49,0-6.56.56-9.2,1.67-2.65,1.12-4.91,2.55-6.8,4.29-1.88,1.75-3.35,3.76-4.39,6.06-1.05,2.3-1.64,4.71-1.78,7.21h41.41Z"/>
    <path class="cls-2" d="M631.53,821.61c-2.65-3.35-6.24-5.82-10.77-7.42-4.53-1.6-8.82-2.41-12.86-2.41-2.37,0-4.81.28-7.32.84-2.51.56-4.88,1.43-7.11,2.61-2.23,1.19-4.05,2.75-5.44,4.71-1.4,1.95-2.09,4.32-2.09,7.11,0,4.46,1.67,7.88,5.02,10.25,3.35,2.37,7.56,4.39,12.65,6.06,5.09,1.67,10.56,3.35,16.42,5.02,5.86,1.67,11.33,4.05,16.42,7.11,5.09,3.07,9.31,7.18,12.65,12.34,3.35,5.16,5.02,12.06,5.02,20.7s-1.54,15.41-4.6,21.54c-3.07,6.14-7.21,11.22-12.44,15.27-5.23,4.04-11.29,7.04-18.19,8.99-6.9,1.95-14.19,2.93-21.85,2.93-9.62,0-18.54-1.46-26.77-4.39-8.23-2.93-15.89-7.67-23-14.22l23.21-25.51c3.35,4.46,7.56,7.91,12.65,10.35,5.09,2.44,10.35,3.66,15.79,3.66,2.65,0,5.33-.31,8.05-.94,2.72-.63,5.16-1.57,7.32-2.82,2.16-1.25,3.9-2.86,5.23-4.81,1.32-1.95,1.99-4.25,1.99-6.9,0-4.46-1.71-7.98-5.12-10.56-3.42-2.58-7.71-4.77-12.86-6.59-5.16-1.81-10.74-3.62-16.73-5.44-6-1.81-11.57-4.25-16.73-7.32-5.16-3.07-9.45-7.11-12.86-12.13-3.42-5.02-5.12-11.64-5.12-19.87s1.57-14.92,4.71-20.91c3.14-5.99,7.32-11.01,12.55-15.06,5.23-4.04,11.26-7.07,18.09-9.1,6.83-2.02,13.87-3.03,21.12-3.03,8.37,0,16.45,1.19,24.26,3.55,7.81,2.37,14.85,6.35,21.12,11.92l-22.38,24.47Z"/>
    <path class="cls-2" d="M668.33,799.86c0-5.02,1.78-9.31,5.33-12.86,3.56-3.56,7.84-5.33,12.86-5.33s9.31,1.78,12.86,5.33c3.56,3.55,5.33,7.84,5.33,12.86s-1.78,9.31-5.33,12.86c-3.56,3.55-7.84,5.33-12.86,5.33s-9.31-1.78-12.86-5.33c-3.56-3.56-5.33-7.84-5.33-12.86ZM670.84,831.86h31.37v101.64h-31.37v-101.64Z"/>
    <path class="cls-2" d="M721.24,775.39h31.37v158.1h-31.37v-158.1Z"/>
    <path class="cls-2" d="M867.42,915.93c-5.02,6.41-11.36,11.36-19.03,14.85-7.67,3.48-15.62,5.23-23.84,5.23s-15.16-1.25-22.06-3.76-12.9-6.1-17.98-10.77c-5.09-4.67-9.1-10.28-12.02-16.83-2.93-6.55-4.39-13.87-4.39-21.96s1.46-15.4,4.39-21.96c2.93-6.55,6.93-12.16,12.02-16.83,5.09-4.67,11.08-8.26,17.98-10.77s14.25-3.76,22.06-3.76c7.25,0,13.83,1.25,19.76,3.76,5.92,2.51,10.94,6.1,15.06,10.77,4.11,4.67,7.28,10.28,9.52,16.83,2.23,6.55,3.35,13.87,3.35,21.96v9.83h-72.78c1.25,6,3.97,10.77,8.16,14.33,4.18,3.56,9.34,5.33,15.48,5.33,5.16,0,9.52-1.15,13.07-3.45,3.56-2.3,6.66-5.26,9.31-8.89l21.96,16.1ZM840.86,871.17c.14-5.3-1.6-9.83-5.23-13.59-3.63-3.76-8.3-5.65-14.01-5.65-3.49,0-6.56.56-9.2,1.67-2.65,1.12-4.91,2.55-6.8,4.29-1.88,1.75-3.35,3.76-4.39,6.06-1.05,2.3-1.64,4.71-1.78,7.21h41.41Z"/>
    <path class="cls-2" d="M887.28,831.86h30.11v13.8h.42c.97-1.95,2.37-3.9,4.18-5.86,1.81-1.95,3.97-3.69,6.48-5.23,2.51-1.53,5.37-2.79,8.57-3.76,3.21-.97,6.69-1.46,10.46-1.46,7.95,0,14.36,1.22,19.24,3.66,4.88,2.44,8.68,5.82,11.4,10.14,2.72,4.32,4.56,9.41,5.54,15.27.97,5.86,1.46,12.2,1.46,19.03v56.05h-31.37v-49.77c0-2.93-.1-5.96-.31-9.1-.21-3.14-.84-6.03-1.88-8.68-1.05-2.65-2.65-4.81-4.81-6.48-2.16-1.67-5.26-2.51-9.31-2.51s-7.32.73-9.83,2.2c-2.51,1.46-4.43,3.42-5.75,5.86-1.33,2.44-2.2,5.2-2.61,8.26-.42,3.07-.63,6.27-.63,9.62v50.61h-31.37v-101.64Z"/>
    <path class="cls-2" d="M1072.15,864.69c-1.54-2.23-3.7-4.08-6.48-5.54-2.79-1.46-5.79-2.2-8.99-2.2-7.95,0-14.12,2.37-18.51,7.11-4.39,4.74-6.59,10.95-6.59,18.61s2.2,13.88,6.59,18.61c4.39,4.74,10.56,7.11,18.51,7.11,3.48,0,6.48-.76,8.99-2.3,2.51-1.53,4.67-3.35,6.48-5.44l20.7,21.75c-4.88,5.02-10.63,8.54-17.25,10.56-6.62,2.02-12.93,3.03-18.93,3.03-7.81,0-15.16-1.25-22.06-3.76s-12.9-6.1-17.99-10.77c-5.09-4.67-9.1-10.28-12.02-16.83-2.93-6.55-4.39-13.87-4.39-21.96s1.46-15.4,4.39-21.96c2.93-6.55,6.93-12.16,12.02-16.83,5.09-4.67,11.08-8.26,17.99-10.77s14.25-3.76,22.06-3.76c5.99,0,12.3,1.01,18.93,3.03,6.62,2.02,12.37,5.54,17.25,10.56l-20.7,21.75Z"/>
    <path class="cls-2" d="M1098.08,799.86c0-5.02,1.78-9.31,5.33-12.86s7.84-5.33,12.86-5.33,9.31,1.78,12.86,5.33c3.56,3.55,5.33,7.84,5.33,12.86s-1.78,9.31-5.33,12.86-7.84,5.33-12.86,5.33-9.31-1.78-12.86-5.33c-3.55-3.56-5.33-7.84-5.33-12.86ZM1100.59,831.86h31.37v101.64h-31.37v-101.64Z"/>
    <path class="cls-2" d="M1146.81,882.67c0-8.08,1.46-15.4,4.39-21.96,2.93-6.55,6.93-12.16,12.03-16.83,5.09-4.67,11.08-8.26,17.98-10.77,6.9-2.51,14.25-3.76,22.06-3.76s15.16,1.25,22.06,3.76,12.89,6.1,17.99,10.77c5.09,4.67,9.1,10.28,12.02,16.83,2.93,6.55,4.39,13.87,4.39,21.96s-1.46,15.41-4.39,21.96c-2.93,6.55-6.94,12.17-12.02,16.83-5.09,4.67-11.08,8.26-17.99,10.77s-14.26,3.76-22.06,3.76-15.16-1.25-22.06-3.76c-6.9-2.51-12.9-6.1-17.98-10.77-5.09-4.67-9.1-10.28-12.03-16.83-2.93-6.55-4.39-13.87-4.39-21.96ZM1178.18,882.67c0,7.67,2.2,13.88,6.59,18.61,4.39,4.74,10.56,7.11,18.51,7.11s14.12-2.37,18.51-7.11c4.39-4.74,6.59-10.94,6.59-18.61s-2.2-13.87-6.59-18.61c-4.39-4.74-10.56-7.11-18.51-7.11s-14.12,2.37-18.51,7.11c-4.39,4.74-6.59,10.95-6.59,18.61Z"/>
  </g>
</svg>